<svg width="500" height="179" viewBox="0 0 500 179" fill="none" xmlns="http://www.w3.org/2000/svg">
<g clip-path="url(#clip0_4274_11743)">
<path d="M283.825 24.698L246.847 111.723C238.95 131.518 227.685 137.463 212.869 137.463C204.482 137.463 195.36 134.705 190.033 129.986L198.727 113.071C202.4 116.258 207.42 118.281 212.134 118.281C218.685 118.281 222.358 115.4 225.542 108.046L225.848 107.311L190.339 24.698H214.889L237.909 80.3451L261.051 24.698H283.825Z" fill="#100F3C"/>
<path d="M365.006 72.4394H303.049C305.314 82.6741 314.008 88.9252 326.497 88.9252C335.191 88.9252 341.435 86.3512 347.068 81.0193L359.679 94.7473C352.088 103.45 340.639 107.985 325.885 107.985C297.539 107.985 279.111 90.1509 279.111 65.7593C279.111 41.1839 297.845 23.5337 322.824 23.5337C346.884 23.5337 365.496 39.713 365.496 66.0657C365.496 67.843 365.189 70.417 365.006 72.4394ZM302.743 58.5276H343.088C341.435 48.1704 333.66 41.429 323.007 41.429C312.171 41.4903 304.396 48.0478 302.743 58.5276Z" fill="#100F3C"/>
<path d="M464.492 65.698C464.492 91.4379 446.677 107.924 423.657 107.924C413.433 107.924 405.046 104.737 398.985 97.9954V136.237H375.23V24.6981H397.944V34.1361C403.882 26.9657 412.698 23.4724 423.657 23.4724C446.677 23.4724 464.492 39.9582 464.492 65.698ZM440.432 65.698C440.432 51.5411 431.432 42.9612 419.555 42.9612C407.678 42.9612 398.678 51.4798 398.678 65.698C398.678 79.8549 407.678 88.4349 419.555 88.4349C431.432 88.4349 440.432 79.9162 440.432 65.698Z" fill="#100F3C"/>
<path d="M470.736 94.073C470.736 86.2898 476.859 80.5289 485.368 80.5289C493.878 80.5289 500 86.351 500 94.073C500 101.672 493.878 107.923 485.368 107.923C476.859 107.923 470.736 101.672 470.736 94.073ZM471.165 0H499.511L494.797 69.6814H475.94L471.165 0Z" fill="#100F3C"/>
<path d="M111.975 2.81909C111.975 3.49323 112.036 20.6531 112.036 21.3273C111.791 41.3063 94.8329 57.7308 74.6296 57.4243C54.5488 57.1792 37.8352 40.2032 38.0189 20.2854C38.0189 19.979 38.0189 19.6726 38.0801 19.3661H0.061222C0.061222 20.0403 0 20.7144 0 21.3886C0.183666 61.4079 31.1008 93.7053 71.8746 96.4631C108.853 98.9758 145.586 69.6814 149.32 31.5619C149.688 27.5171 149.994 6.92521 150.239 2.81909H111.975Z" fill="#0063FF"/>
<path d="M146.933 86.2898C155.749 107.924 146.076 129.435 124.159 138.198C108.425 144.511 92.3235 149.965 76.4058 155.787C57.7331 162.59 39.1216 169.454 20.4489 176.257C18.1224 177.115 15.6735 177.544 13.3471 178.157C5.8168 158.79 13.3471 136.666 32.1423 129.128C69.855 114.113 108.18 100.692 146.933 86.2898Z" fill="#0063FF"/>
</g>
<defs>
<clipPath id="clip0_4274_11743">
<rect width="500" height="178.218" fill="white"/>
</clipPath>
</defs>
</svg>
